<svg width="22" height="17" viewBox="0 0 22 17" fill="none" xmlns="http://www.w3.org/2000/svg">
<path d="M16.5075 0.452393C14.5566 0.452393 12.4557 0.833282 11.005 1.88073C9.55434 0.833282 7.45339 0.452393 5.5025 0.452393C4.05184 0.452393 2.51114 0.661882 1.22055 1.20465C0.490223 1.51888 0 2.19496 0 2.96626V13.7073C0 14.9452 1.22055 15.8594 2.48113 15.5547C3.46157 15.3166 4.50205 15.2119 5.5025 15.2119C7.06321 15.2119 8.72397 15.4594 10.0646 16.0879C10.6648 16.3736 11.3452 16.3736 11.9354 16.0879C13.276 15.4499 14.9368 15.2119 16.4975 15.2119C17.498 15.2119 18.5384 15.3166 19.5189 15.5547C20.7794 15.8689 22 14.9547 22 13.7073V2.96626C22 2.19496 21.5098 1.51888 20.7794 1.20465C19.4989 0.661882 17.9582 0.452393 16.5075 0.452393ZM20.0091 12.5742C20.0091 13.1741 19.4288 13.6121 18.8085 13.5074C18.0582 13.3741 17.2779 13.3169 16.5075 13.3169C14.8067 13.3169 12.3556 13.9359 11.005 14.7453V3.78517C12.3556 2.97578 14.8067 2.35684 16.5075 2.35684C17.4279 2.35684 18.3383 2.44254 19.2087 2.62346C19.6689 2.71868 20.0091 3.1091 20.0091 3.55664V12.5742Z" fill="url(#paint0_linear_24_12)"/>
<path d="M8.9859 7.60363C8.66575 7.60363 8.37562 7.41318 8.27557 7.10847C8.14551 6.7371 8.36561 6.32765 8.75579 6.21338C10.2965 5.73727 12.2874 5.58492 14.1182 5.78488C14.5284 5.83249 14.8286 6.18482 14.7785 6.57523C14.7285 6.96564 14.3583 7.25131 13.9482 7.20369C12.3274 7.02277 10.5566 7.1656 9.216 7.57506C9.13596 7.58458 9.05593 7.60363 8.9859 7.60363Z" fill="url(#paint1_linear_24_12)"/>
<path d="M8.9859 10.1365C8.66575 10.1365 8.37562 9.94602 8.27557 9.64131C8.14551 9.26994 8.36561 8.86049 8.75579 8.74622C10.2865 8.27011 12.2874 8.11775 14.1182 8.31772C14.5284 8.36533 14.8286 8.71765 14.7785 9.10806C14.7285 9.49848 14.3583 9.78414 13.9482 9.73653C12.3274 9.55561 10.5566 9.69844 9.216 10.1079C9.13596 10.1269 9.05593 10.1365 8.9859 10.1365Z" fill="url(#paint2_linear_24_12)"/>
<path d="M8.9859 12.6694C8.66575 12.6694 8.37562 12.479 8.27557 12.1743C8.14551 11.8029 8.36561 11.3934 8.75579 11.2792C10.2865 10.8031 12.2874 10.6507 14.1182 10.8507C14.5284 10.8983 14.8286 11.2506 14.7785 11.641C14.7285 12.0314 14.3583 12.3076 13.9482 12.2695C12.3274 12.0886 10.5566 12.2314 9.216 12.6409C9.13596 12.6599 9.05593 12.6694 8.9859 12.6694Z" fill="url(#paint3_linear_24_12)"/>
<defs>
<linearGradient id="paint0_linear_24_12" x1="11" y1="0.452393" x2="11" y2="16.3021" gradientUnits="userSpaceOnUse">
<stop stop-color="#FFB852"/>
<stop offset="1" stop-color="#BE6F01"/>
</linearGradient>
<linearGradient id="paint1_linear_24_12" x1="11.511" y1="5.6991" x2="11.511" y2="7.60363" gradientUnits="userSpaceOnUse">
<stop stop-color="#FFB852"/>
<stop offset="1" stop-color="#BE6F01"/>
</linearGradient>
<linearGradient id="paint2_linear_24_12" x1="11.511" y1="8.23193" x2="11.511" y2="10.1365" gradientUnits="userSpaceOnUse">
<stop stop-color="#FFB852"/>
<stop offset="1" stop-color="#BE6F01"/>
</linearGradient>
<linearGradient id="paint3_linear_24_12" x1="11.511" y1="10.7649" x2="11.511" y2="12.6694" gradientUnits="userSpaceOnUse">
<stop stop-color="#FFB852"/>
<stop offset="1" stop-color="#BE6F01"/>
</linearGradient>
</defs>
</svg>
