<svg width="22" height="20" viewBox="0 0 22 20" fill="none" xmlns="http://www.w3.org/2000/svg">
<path d="M10.8507 19.3748L15.3801 7.94811H17.4706L22 19.3748H19.9095L18.8643 16.4705H14.0362L12.9412 19.3748H10.8507ZM14.6335 14.8041H18.2172L16.4751 10.0906H16.3756L14.6335 14.8041ZM2.98643 16.5181L1.59276 15.185L6.61991 10.3763C5.98944 9.70972 5.43778 9.01936 4.96493 8.30519C4.49208 7.59102 4.08145 6.83718 3.73303 6.04366H5.82353C6.12217 6.61499 6.44155 7.13078 6.78167 7.59102C7.1218 8.05126 7.53243 8.53531 8.01357 9.04316C8.74359 8.28138 9.34917 7.49977 9.83032 6.69831C10.3115 5.89686 10.7179 5.04383 11.0498 4.13921H0V2.23477H6.96833V0.330322H8.95928V2.23477H15.9276V4.13921H13.0407C12.6923 5.26601 12.2195 6.36107 11.6222 7.42438C11.0249 8.4877 10.2866 9.48753 9.40724 10.4239L11.7964 12.7568L11.0498 14.7089L7.9638 11.757L2.98643 16.5181Z" fill="url(#paint0_linear_24_19)"/>
<defs>
<linearGradient id="paint0_linear_24_19" x1="11" y1="0.330322" x2="11" y2="19.3748" gradientUnits="userSpaceOnUse">
<stop stop-color="#FFB852"/>
<stop offset="1" stop-color="#BE6F01"/>
</linearGradient>
</defs>
</svg>
