<svg width="104" height="35" viewBox="0 0 104 35" fill="none" xmlns="http://www.w3.org/2000/svg">
<path d="M17.976 34V19.744H7.992V34H0.119995V0.736023H7.992V13.6H17.976V0.736023H25.848V34H17.976Z" fill="#171717"/>
<path d="M52.2007 26.608C52.2007 27.568 52.3287 28.272 52.5847 28.72C52.8727 29.168 53.3207 29.504 53.9287 29.728L52.3447 34.672C50.7767 34.544 49.4967 34.208 48.5047 33.664C47.5127 33.088 46.7447 32.192 46.2007 30.976C44.5367 33.536 41.9767 34.816 38.5207 34.816C35.9927 34.816 33.9767 34.08 32.4727 32.608C30.9687 31.136 30.2167 29.216 30.2167 26.848C30.2167 24.064 31.2407 21.936 33.2887 20.464C35.3367 18.992 38.2967 18.256 42.1687 18.256H44.7607V17.152C44.7607 15.648 44.4407 14.624 43.8007 14.08C43.1607 13.504 42.0407 13.216 40.4407 13.216C39.6087 13.216 38.6007 13.344 37.4167 13.6C36.2327 13.824 35.0167 14.144 33.7687 14.56L32.0407 9.56802C33.6407 8.96002 35.2727 8.49602 36.9367 8.17602C38.6327 7.85602 40.2007 7.69602 41.6407 7.69602C45.2887 7.69602 47.9607 8.44802 49.6567 9.95202C51.3527 11.456 52.2007 13.712 52.2007 16.72V26.608ZM40.7287 29.392C42.4567 29.392 43.8007 28.576 44.7607 26.944V22.432H42.8887C41.1607 22.432 39.8647 22.736 39.0007 23.344C38.1687 23.952 37.7527 24.896 37.7527 26.176C37.7527 27.2 38.0087 28 38.5207 28.576C39.0647 29.12 39.8007 29.392 40.7287 29.392Z" fill="#171717"/>
<path d="M78.2632 26.608C78.2632 27.568 78.3912 28.272 78.6472 28.72C78.9352 29.168 79.3832 29.504 79.9912 29.728L78.4072 34.672C76.8392 34.544 75.5592 34.208 74.5672 33.664C73.5752 33.088 72.8072 32.192 72.2632 30.976C70.5992 33.536 68.0392 34.816 64.5832 34.816C62.0552 34.816 60.0392 34.08 58.5352 32.608C57.0312 31.136 56.2792 29.216 56.2792 26.848C56.2792 24.064 57.3032 21.936 59.3512 20.464C61.3992 18.992 64.3592 18.256 68.2312 18.256H70.8232V17.152C70.8232 15.648 70.5032 14.624 69.8632 14.08C69.2232 13.504 68.1032 13.216 66.5032 13.216C65.6712 13.216 64.6632 13.344 63.4792 13.6C62.2952 13.824 61.0792 14.144 59.8312 14.56L58.1032 9.56802C59.7032 8.96002 61.3352 8.49602 62.9992 8.17602C64.6952 7.85602 66.2632 7.69602 67.7032 7.69602C71.3512 7.69602 74.0232 8.44802 75.7192 9.95202C77.4152 11.456 78.2632 13.712 78.2632 16.72V26.608ZM66.7912 29.392C68.5192 29.392 69.8632 28.576 70.8232 26.944V22.432H68.9512C67.2232 22.432 65.9272 22.736 65.0632 23.344C64.2312 23.952 63.8152 24.896 63.8152 26.176C63.8152 27.2 64.0712 28 64.5832 28.576C65.1272 29.12 65.8632 29.392 66.7912 29.392Z" fill="#171717"/>
<path d="M92.8114 7.69602C94.6354 7.69602 96.3474 7.96802 97.9474 8.51202C99.5474 9.05602 100.955 9.82402 102.171 10.816L99.3874 15.088C97.3074 13.776 95.2114 13.12 93.0994 13.12C92.1074 13.12 91.3394 13.296 90.7954 13.648C90.2834 13.968 90.0274 14.432 90.0274 15.04C90.0274 15.52 90.1394 15.92 90.3634 16.24C90.6194 16.528 91.1154 16.832 91.8514 17.152C92.5874 17.472 93.7234 17.856 95.2594 18.304C97.9154 19.072 99.8834 20.08 101.163 21.328C102.475 22.544 103.131 24.24 103.131 26.416C103.131 28.144 102.635 29.648 101.643 30.928C100.651 32.176 99.2914 33.136 97.5634 33.808C95.8354 34.48 93.9154 34.816 91.8034 34.816C89.6594 34.816 87.6594 34.48 85.8034 33.808C83.9794 33.136 82.4274 32.208 81.1474 31.024L84.8434 26.896C86.9874 28.56 89.2434 29.392 91.6114 29.392C92.7634 29.392 93.6594 29.184 94.2994 28.768C94.9714 28.352 95.3074 27.76 95.3074 26.992C95.3074 26.384 95.1794 25.904 94.9234 25.552C94.6674 25.2 94.1714 24.88 93.4354 24.592C92.6994 24.272 91.5314 23.888 89.9314 23.44C87.4034 22.704 85.5154 21.68 84.2674 20.368C83.0194 19.056 82.3954 17.424 82.3954 15.472C82.3954 14 82.8114 12.688 83.6434 11.536C84.5074 10.352 85.7234 9.42402 87.2914 8.75202C88.8914 8.04802 90.7314 7.69602 92.8114 7.69602Z" fill="#171717"/>
</svg>
